<svg version="1.1" id="Layer_1" xmlns="http://www.w3.org/2000/svg" xmlns:xlink="http://www.w3.org/1999/xlink" x="0px" y="0px"
	 width="100%" viewBox="0 0 1000 1125" enable-background="new 0 0 1000 1125" xml:space="preserve">
<path fill="#000000" opacity="1.000000" stroke="none" 
	d="
M1.313031,598.245056 
	C1.000000,575.312439 1.000000,552.624878 1.000000,529.468628 
	C2.970459,527.255432 5.396586,527.695801 7.686479,527.691589 
	C26.349140,527.656982 45.011902,527.686096 63.674603,527.665649 
	C70.239922,527.658508 70.085968,527.499817 70.749931,521.050659 
	C73.658188,492.802277 79.073532,465.042328 87.469215,437.891052 
	C99.156555,400.094604 115.705231,364.533386 137.061356,331.255920 
	C149.403778,312.023743 163.298859,293.948914 178.574661,276.904724 
	C204.299530,248.201828 233.145187,223.162506 265.436096,202.148193 
	C303.707794,177.241669 344.863708,158.706406 388.999939,146.846954 
	C414.318909,140.043716 439.987213,135.394897 466.165253,133.531677 
	C480.275574,132.527374 494.382904,131.246735 508.529022,131.723816 
	C564.843140,133.623093 619.198242,144.545242 671.085815,167.031479 
	C713.019470,185.204086 751.202026,209.270935 785.511536,239.381653 
	C824.578918,273.667999 856.450928,313.738739 881.274841,359.474548 
	C904.477173,402.222473 919.740295,447.611237 927.758789,495.505249 
	C929.271301,504.539581 930.384277,513.635437 931.267395,522.752808 
	C931.808838,528.343140 931.948242,528.644592 937.530579,528.656921 
	C956.193237,528.698120 974.856018,528.656311 993.518677,528.691223 
	C995.821228,528.695496 998.203979,528.287781 1000.686951,529.754883 
	C1001.000000,552.354248 1001.000000,574.708435 1001.000000,597.531372 
	C999.029358,599.744690 996.603027,599.304565 994.312866,599.308777 
	C975.648499,599.343506 956.984131,599.314392 938.319702,599.334778 
	C931.760437,599.341980 931.903442,599.498596 931.251892,605.957092 
	C928.485291,633.381592 923.136169,660.303528 915.329529,686.749329 
	C907.804443,712.241699 897.946960,736.804138 885.732910,760.378418 
	C868.563782,793.516602 847.639343,824.071960 822.640564,851.885742 
	C791.060852,887.021423 754.885254,916.329285 713.873596,939.738953 
	C667.174561,966.394958 617.231201,983.589539 564.058960,991.503967 
	C538.970947,995.238220 513.734375,997.181335 488.409241,996.215942 
	C450.320679,994.763977 412.896942,988.893494 376.345337,977.731140 
	C320.792328,960.766113 270.600250,933.835388 225.929642,896.790527 
	C183.274200,861.416809 148.577454,819.405945 121.846939,770.767395 
	C100.968445,732.777100 86.317474,692.571106 77.461395,650.209717 
	C74.358017,635.365234 72.110840,620.367126 70.718285,605.259888 
	C70.212440,599.772095 70.044144,599.355896 64.480690,599.343628 
	C45.816353,599.302368 27.151861,599.344360 8.487507,599.309143 
	C6.182911,599.304749 3.798069,599.712708 1.313031,598.245056 
z"/>
<path fill="#000000" opacity="1.000000" stroke="none" 
	d="
M1.323345,506.214050 
	C1.000000,339.369568 1.014534,172.739105 0.911448,6.108744 
	C0.909011,2.169928 1.362326,0.864834 5.889196,0.866836 
	C335.984039,1.012811 666.078918,1.008261 996.173767,0.900321 
	C1000.066101,0.899049 1001.125000,1.453244 1001.121399,5.671863 
	C1000.978760,172.468719 1001.000000,339.265717 1001.000000,506.531342 
	C997.664062,508.005432 998.005310,505.334351 997.802673,503.587433 
	C995.323425,482.208221 991.362976,461.107849 985.962097,440.279633 
	C972.903381,389.919434 953.086304,342.450806 925.111389,298.493561 
	C908.794434,272.854462 890.248535,248.992798 869.540588,226.687241 
	C831.335266,185.534424 787.611694,151.659271 738.463806,124.608208 
	C684.539246,94.927994 626.883423,76.742821 566.075073,68.199165 
	C548.106995,65.674629 530.035400,64.648705 511.877502,64.032043 
	C498.712769,63.584953 485.578247,63.957951 472.526215,64.560547 
	C443.897858,65.882271 415.547180,70.003044 387.566040,76.440300 
	C345.111725,86.207199 304.545349,101.108292 266.044250,121.450523 
	C233.967270,138.398529 204.157074,158.745804 176.722580,182.543457 
	C164.635101,193.028580 152.943237,203.927368 141.894180,215.489563 
	C111.137108,247.675110 84.678886,283.035858 62.897953,321.929169 
	C41.261997,360.563568 25.192596,401.327179 14.785540,444.334808 
	C10.159347,463.452728 6.510058,482.759796 4.237675,502.313019 
	C4.036505,504.043976 4.306024,506.191833 1.323345,506.214050 
z"/>
<path fill="#000000" opacity="1.000000" stroke="none" 
	d="
M1000.676270,620.785889 
	C1001.000000,787.630432 1000.985474,954.260803 1001.088501,1120.891235 
	C1001.090942,1124.829712 1000.638062,1126.135254 996.110901,1126.133179 
	C666.016174,1125.987183 335.921356,1125.991699 5.826566,1126.099487 
	C1.935043,1126.100830 0.874970,1125.547974 0.878589,1121.328491 
	C1.021339,954.864868 1.000000,788.401062 1.000000,621.468628 
	C4.335626,619.994873 4.005641,622.665710 4.196635,624.412598 
	C7.156858,651.487976 12.767716,678.038513 20.432787,704.133423 
	C39.651478,769.561218 70.593925,828.807007 114.418312,881.200928 
	C147.025665,920.184387 184.524597,953.719360 226.943619,981.668091 
	C262.581696,1005.148987 300.500427,1024.191650 341.032257,1037.680786 
	C373.833008,1048.596802 407.415131,1056.229492 441.865601,1059.885498 
	C458.097382,1061.608032 474.356110,1062.243896 490.649170,1062.957153 
	C503.490295,1063.519287 516.276550,1062.964355 529.008118,1062.456421 
	C555.971741,1061.380737 582.703186,1057.662109 609.100952,1051.863281 
	C639.780396,1045.123779 669.595825,1035.618286 698.497803,1023.354492 
	C729.261963,1010.300598 758.343079,994.179321 785.808655,975.079468 
	C812.029114,956.845459 836.137634,936.178406 858.332397,913.276794 
	C890.023499,880.576416 917.104797,844.442322 939.341980,804.635376 
	C960.855774,766.123413 976.834045,725.504944 987.227173,682.668213 
	C991.826355,663.712036 995.346436,644.551392 997.714722,625.182495 
	C997.939758,623.342041 997.422302,620.927795 1000.676270,620.785889 
z"/>
<path fill="#FFFFFF" opacity="1.000000" stroke="none" 
	d="
M1.000000,506.468628 
	C2.464638,506.173157 2.901224,505.555481 3.040282,504.060242 
	C6.721483,464.476959 16.734867,426.316681 30.160532,389.088654 
	C40.809994,359.558777 55.256535,331.769928 71.463860,304.847107 
	C81.808571,287.662994 93.331055,271.338928 105.375717,255.385651 
	C112.756912,245.609192 121.174614,236.611084 129.197128,227.324158 
	C138.098984,217.019257 147.667801,207.325058 157.588547,198.030869 
	C175.330826,181.409180 193.990814,165.908997 213.940582,151.906372 
	C236.550034,136.036926 260.319305,122.247688 285.216461,110.426498 
	C310.739746,98.308044 337.143921,88.404846 364.445404,81.022110 
	C380.935364,76.562973 397.525269,72.593147 414.432434,69.901443 
	C427.301941,67.852554 440.150085,65.980446 453.150085,64.857521 
	C463.651581,63.950417 474.110931,62.874393 484.665161,62.981445 
	C489.267303,63.028126 494.016266,61.959972 498.397614,62.265526 
	C514.645447,63.398651 530.960144,62.599915 547.197510,64.753944 
	C556.715515,66.016579 566.396606,66.625160 575.878723,68.147049 
	C589.565063,70.343712 603.160950,73.235275 616.672668,76.361084 
	C644.696228,82.844055 671.894836,92.072243 698.333679,103.271210 
	C714.890686,110.284409 730.869324,118.642555 746.501465,127.677628 
	C761.014404,136.065796 775.235657,144.850906 788.923218,154.488266 
	C801.409241,163.279633 813.543335,172.523926 825.138550,182.513763 
	C838.779297,194.265762 852.246826,206.200577 864.635376,219.246613 
	C882.958740,238.542328 899.849976,259.027649 915.066284,280.920959 
	C930.272339,302.799530 943.534790,325.775940 954.899414,349.810425 
	C967.319153,376.076294 977.334045,403.300140 984.960999,431.354919 
	C989.571411,448.313568 993.663696,465.390442 996.065430,482.846619 
	C997.129944,490.583649 999.069336,498.198578 999.091064,506.079010 
	C999.092468,506.588654 999.848633,507.096222 1000.626831,507.302368 
	C1001.000000,514.354248 1001.000000,521.708496 1001.000000,529.531372 
	C979.006531,530.000000 957.012329,529.907776 935.020264,530.084534 
	C931.036865,530.116516 930.057556,528.901062 929.880615,524.977478 
	C929.212769,510.173950 926.721741,495.555176 923.880432,481.049377 
	C920.391052,463.234772 915.747925,445.660309 909.931580,428.459595 
	C902.681396,407.018433 894.041565,386.106140 883.489075,366.067810 
	C871.839661,343.946411 858.590454,322.760406 843.325867,302.959473 
	C828.425720,283.631439 812.254578,265.318115 794.211365,248.858932 
	C771.045288,227.726517 746.163574,208.843140 719.028564,192.920731 
	C689.401917,175.536240 658.276794,161.754089 625.425842,151.805908 
	C606.903687,146.196884 588.111206,141.873978 568.961060,138.909103 
	C551.459839,136.199509 533.874695,135.039978 516.251221,133.635971 
	C501.111084,132.429825 486.151184,133.444199 471.236328,134.280762 
	C445.980713,135.697342 420.943970,139.796509 396.402771,146.097473 
	C373.561981,151.961823 351.261688,159.560425 329.616852,169.017334 
	C303.899109,180.253769 279.548706,193.895172 256.472687,209.866119 
	C244.443329,218.191635 232.998016,227.220932 221.763779,236.590530 
	C209.402710,246.899902 197.952682,258.131409 186.888824,269.740021 
	C172.262192,285.086853 159.155121,301.696289 146.909851,319.040619 
	C132.833954,338.977875 120.910194,360.113434 110.505142,382.103546 
	C98.198357,408.112823 88.719582,435.157684 81.941063,463.161713 
	C78.171471,478.735016 75.500671,494.500763 73.203499,510.316589 
	C72.553894,514.789062 71.312363,519.382568 72.007607,524.033508 
	C72.613358,528.085876 70.811157,529.110107 66.916725,529.080078 
	C45.257999,528.913269 23.597324,529.000000 1.468657,529.000000 
	C1.000000,521.645752 1.000000,514.291504 1.000000,506.468628 
z"/>
<path fill="#FFFFFF" opacity="1.000000" stroke="none" 
	d="
M1001.000000,620.531372 
	C999.535400,620.825928 999.073425,621.434448 998.961670,622.939453 
	C997.493896,642.701294 993.517700,662.066711 988.908875,681.263794 
	C982.236816,709.055664 973.663757,736.300354 961.894470,762.388672 
	C948.976990,791.022034 934.150513,818.633423 916.175049,844.490417 
	C906.166077,858.888062 895.693665,872.882568 884.362427,886.290771 
	C871.761597,901.201294 858.562622,915.527466 844.430420,928.948853 
	C827.027832,945.476257 808.582642,960.789795 788.910706,974.601685 
	C765.007568,991.384399 739.792542,1005.882812 713.333496,1018.201233 
	C691.075500,1028.563721 668.093079,1037.036865 644.550293,1044.020386 
	C626.320129,1049.428101 607.886780,1053.919312 589.117737,1057.000488 
	C571.565552,1059.881836 553.991089,1062.314331 536.174133,1063.249146 
	C529.588196,1063.594604 522.981323,1063.503174 516.412781,1064.030640 
	C503.072479,1065.102173 489.735229,1064.203247 476.417053,1063.878418 
	C462.031250,1063.527588 447.712250,1061.939453 433.404083,1060.126953 
	C412.516479,1057.480835 391.972748,1053.369873 371.634949,1048.028076 
	C352.081879,1042.892334 332.964325,1036.521484 314.150208,1029.098511 
	C297.220825,1022.419189 280.926300,1014.413147 264.941162,1005.863892 
	C243.198883,994.235718 222.352615,981.085510 202.624512,966.199829 
	C187.337296,954.665161 172.776398,942.344299 158.658005,929.386597 
	C142.699539,914.740051 127.950279,899.064880 113.974998,882.560974 
	C93.639404,858.545898 76.037918,832.717529 60.969112,805.099487 
	C48.028519,781.382202 37.021629,756.862915 27.874126,731.420349 
	C20.687120,711.430542 15.201786,690.986084 10.347278,670.392700 
	C7.421345,657.980591 5.592251,645.262085 3.747121,632.588440 
	C3.192440,628.778503 4.450635,624.515320 1.434016,621.008057 
	C1.000000,613.645752 1.000000,606.291504 1.000000,598.468628 
	C22.993944,598.000000 44.988628,598.092285 66.981155,597.915527 
	C70.966217,597.883484 71.907242,599.111633 72.127579,603.022827 
	C72.904778,616.818665 75.314133,630.400879 77.837013,643.999634 
	C81.689842,664.767090 86.998306,685.093933 94.003342,704.983337 
	C102.763863,729.857056 113.684265,753.695801 126.752831,776.679688 
	C139.342331,798.821045 153.965759,819.443604 169.852036,839.205444 
	C182.109283,854.452759 195.886749,868.413940 210.295334,881.595581 
	C232.707367,902.099182 257.013794,920.263123 283.277100,935.575317 
	C300.605072,945.677979 318.619537,954.449585 337.198120,962.211975 
	C359.944458,971.715637 383.322815,978.964478 407.236572,984.514709 
	C419.671844,987.400879 432.300201,989.505859 445.022095,991.122253 
	C466.794159,993.888672 488.614838,995.636353 510.525696,994.880920 
	C528.170166,994.272583 545.754211,992.754639 563.295654,990.188354 
	C590.179810,986.255249 616.388489,979.894165 641.987366,970.977966 
	C666.890259,962.304199 690.705811,951.313843 713.688354,938.241821 
	C735.827820,925.649292 756.465515,911.044739 776.207214,895.134094 
	C791.044250,883.176270 804.657349,869.770569 817.570251,855.782410 
	C838.525208,833.082581 856.966370,808.372559 872.565063,781.706055 
	C882.689087,764.398743 891.464722,746.385132 899.233765,727.804016 
	C908.747009,705.050903 915.826904,681.632874 921.554993,657.761230 
	C924.498047,645.495972 926.628357,633.034729 928.059814,620.464661 
	C928.799255,613.971619 930.167664,607.558533 930.028076,600.967346 
	C929.948181,597.195923 932.897888,598.023132 935.080872,598.019836 
	C956.741455,597.987061 978.402100,598.000000 1000.531372,598.000000 
	C1001.000000,605.354248 1001.000000,612.708496 1001.000000,620.531372 
z"/>
<path fill="#FFFFFF" opacity="1.000000" stroke="none" 
	d="
M455.000000,699.000000 
	C455.000000,670.508911 455.077545,642.517273 454.906372,614.527222 
	C454.883820,610.836609 455.695404,609.816650 459.485321,609.896667 
	C472.308838,610.167603 485.143250,610.110291 497.969757,609.922791 
	C501.188293,609.875732 502.101807,610.674500 502.081207,613.981506 
	C501.930481,638.139587 501.991821,662.299011 502.019531,686.458008 
	C502.021271,687.969238 501.606293,689.624634 503.148315,692.020081 
	C505.255676,682.995911 507.164734,674.986755 508.992706,666.959106 
	C513.031006,649.224487 516.989075,631.471436 521.090637,613.751465 
	C521.624878,611.443359 522.593567,609.785889 525.945251,609.866211 
	C539.433228,610.189331 552.933533,610.019043 566.429138,609.983826 
	C569.121643,609.976807 570.248474,609.640808 569.281616,613.666443 
	C561.132751,647.596619 552.794617,681.478455 544.412781,715.351379 
	C543.293762,719.873535 546.041992,724.425110 547.140686,728.876709 
	C556.152100,765.386047 565.443115,801.826477 574.721680,838.269348 
	C575.653015,841.927368 574.833618,843.154419 570.832031,843.087524 
	C557.173523,842.858948 543.508789,842.975769 529.846558,843.024109 
	C527.585815,843.032104 526.508484,843.051331 525.787170,839.944580 
	C520.326050,816.422119 514.972961,792.879150 509.942657,769.259583 
	C507.995544,760.117065 505.592621,751.071594 503.119843,740.833069 
	C501.619873,743.584778 502.022583,745.388611 502.020996,747.064331 
	C501.992249,777.554626 501.919312,808.045471 502.101929,838.534668 
	C502.124817,842.352600 501.113647,843.164734 497.453156,843.094116 
	C484.795197,842.849854 472.125824,842.825745 459.469330,843.105530 
	C455.645508,843.190125 454.900299,842.112366 454.910980,838.456970 
	C455.046295,792.138245 455.000000,745.819092 455.000000,699.000000 
z"/>
<path fill="#FFFFFF" opacity="1.000000" stroke="none" 
	d="
M327.999329,808.923035 
	C325.985107,802.966919 324.939880,797.309692 324.952667,791.355103 
	C325.042053,749.697021 324.775391,708.036804 325.126373,666.381470 
	C325.243317,652.505005 328.716125,639.245972 336.845215,627.541809 
	C343.994812,617.247803 353.853088,611.023438 366.005096,609.120544 
	C381.136047,606.751160 396.325623,606.582153 410.736298,613.041992 
	C425.415070,619.621887 434.719208,630.759521 437.982513,646.632385 
	C441.621063,664.330444 439.376801,682.271545 440.048004,700.093506 
	C440.144623,702.658081 439.147736,703.059265 436.893005,703.044678 
	C423.063049,702.955200 409.231079,702.906494 395.402557,703.073792 
	C392.411133,703.110046 391.913727,702.062805 391.942535,699.389893 
	C392.073578,687.227051 392.058929,675.061646 391.964752,662.898071 
	C391.935852,659.166931 391.457367,655.353821 387.997681,653.031738 
	C380.588318,648.058533 373.266663,652.854675 372.018677,662.092896 
	C371.886047,663.074829 372.000061,664.090088 372.000061,665.089905 
	C372.000000,705.748352 371.995361,746.406860 372.014557,787.065308 
	C372.015472,788.996094 372.118561,790.831238 372.831024,792.797607 
	C375.519623,800.218018 377.650513,801.923218 384.320404,800.995422 
	C388.852020,800.364990 391.956421,795.862549 391.981903,789.525879 
	C392.039520,775.195679 392.138916,760.862793 391.904480,746.536194 
	C391.844238,742.854126 392.673096,741.818787 396.478302,741.895569 
	C409.803528,742.164673 423.138306,742.078308 436.467468,741.936401 
	C439.252716,741.906799 440.090790,742.614807 440.067200,745.479858 
	C439.929810,762.142090 440.530975,778.828247 439.830658,795.462097 
	C439.278351,808.580505 435.262970,821.077209 425.693024,830.569275 
	C417.616730,838.579651 407.261993,842.507751 395.903168,844.121094 
	C389.793030,844.988953 383.734283,845.042175 377.645935,844.967529 
	C356.907410,844.713440 337.385315,833.460693 329.423187,812.905640 
	C328.960907,811.712219 328.475983,810.527527 327.999329,808.923035 
z"/>
<path fill="#FFFFFF" opacity="1.000000" stroke="none" 
	d="
M650.000000,783.000000 
	C650.000000,801.997253 649.916016,820.495178 650.078918,838.991028 
	C650.107605,842.248413 649.266357,843.129333 645.995728,843.080872 
	C632.833984,842.885620 619.664429,842.841431 606.504822,843.100586 
	C602.754639,843.174438 601.898499,842.219238 601.906799,838.491516 
	C602.039185,779.167297 601.945801,719.842651 602.108154,660.518616 
	C602.120422,656.023071 601.088135,654.568970 596.499878,654.892822 
	C590.364685,655.325928 584.173157,654.892395 578.011597,655.053772 
	C575.610535,655.116699 574.925354,654.406738 574.946350,651.998108 
	C575.059937,639.001099 575.059631,626.002014 574.946594,613.004944 
	C574.925720,610.600769 575.609497,609.943420 578.007324,609.949158 
	C610.002380,610.025513 641.997681,610.025452 673.992737,609.949097 
	C676.390564,609.943359 677.074280,610.600830 677.053406,613.004944 
	C676.940430,626.002014 676.940002,639.001099 677.053589,651.998108 
	C677.074646,654.406799 676.388977,655.112061 673.988464,655.053894 
	C667.493225,654.896240 660.977783,655.255737 654.497986,654.902527 
	C650.710632,654.696106 649.893433,655.811035 649.906799,659.518860 
	C650.054932,700.512146 650.000000,741.506165 650.000000,783.000000 
z"/>
<path fill="#FFFFFF" opacity="1.000000" stroke="none" 
	d="
M475.000000,530.000000 
	C540.656799,530.000000 605.813660,530.043823 670.970276,529.922668 
	C676.612366,529.912170 678.480652,531.187683 678.046875,537.075256 
	C677.790405,540.555786 677.764709,544.091003 678.063599,547.564697 
	C678.387390,551.328369 676.218445,552.468933 673.222717,552.964905 
	C672.087158,553.152954 670.894775,552.999756 669.728333,552.999756 
	C557.245361,553.000000 444.762360,552.993652 332.279388,553.012207 
	C323.480255,553.013611 323.573883,550.932495 323.966187,544.576294 
	C324.160858,541.422119 324.068726,538.244080 323.981689,535.080261 
	C323.884735,531.554810 325.446808,529.930603 329.022430,529.975220 
	C335.853668,530.060547 342.686707,530.000000 349.519012,530.000000 
	C391.179352,530.000000 432.839661,530.000000 475.000000,530.000000 
z"/>
<path fill="#FFFFFF" opacity="1.000000" stroke="none" 
	d="
M460.192017,333.657593 
	C466.045837,336.605896 467.419952,341.813568 467.921387,347.186584 
	C468.540253,353.817566 472.593933,357.989471 479.281799,357.995789 
	C493.775024,358.009460 508.268250,358.010284 522.761475,357.995392 
	C529.409485,357.988556 533.532776,353.802063 534.041687,347.139160 
	C534.733459,338.082214 540.533081,331.176880 550.621094,331.023163 
	C558.282410,330.906403 565.946899,330.987061 573.609924,331.007996 
	C575.838562,331.014099 577.051025,330.734924 578.217224,328.002899 
	C581.869995,319.445496 586.794373,317.204559 597.004150,318.027100 
	C603.014587,318.511322 609.335388,324.436249 609.925476,330.494202 
	C610.695312,338.398010 609.064087,344.960358 600.794617,349.193207 
	C592.108459,353.639343 580.075562,348.417725 577.888306,339.885681 
	C577.549255,338.562897 577.159485,336.767761 574.742126,336.947968 
	C566.197937,337.584747 557.588867,336.037842 549.050781,337.941772 
	C544.003723,339.067230 541.607239,342.222321 541.027100,346.983459 
	C539.462769,359.821625 533.730469,365.000000 520.856995,365.000000 
	C506.863556,365.000031 492.862152,364.716980 478.879700,365.109100 
	C470.849976,365.334290 461.333374,358.899994 461.236572,349.213470 
	C461.148529,340.408875 455.400299,337.455566 447.487640,337.063171 
	C441.172791,336.750061 434.824921,337.147858 428.502136,336.928528 
	C425.906311,336.838531 424.812866,337.866150 423.980438,340.105957 
	C421.380463,347.101654 413.913116,351.785156 406.903748,350.998627 
	C399.903748,350.213135 392.758301,344.094849 392.003998,338.240753 
	C390.785858,328.786896 394.322052,321.786438 401.930115,318.590485 
	C409.838104,315.268524 419.688934,318.984344 423.561371,327.257477 
	C424.978485,330.285004 426.528381,331.197235 429.744812,331.084015 
	C437.232025,330.820435 444.734894,331.017151 452.231293,330.991150 
	C455.058594,330.981354 457.716034,331.419861 460.192017,333.657593 
z"/>
<path fill="#FFFFFF" opacity="1.000000" stroke="none" 
	d="
M460.890381,412.324646 
	C461.044464,399.196838 468.212708,392.000610 480.828949,392.000153 
	C494.488251,391.999634 508.147583,391.997406 521.806885,392.000793 
	C533.062439,392.003571 540.502075,398.950745 540.957153,410.156525 
	C541.161194,415.181305 545.194824,419.355042 552.386841,419.881622 
	C559.677185,420.415497 567.041626,419.847321 574.364197,420.071472 
	C577.480469,420.166840 577.701050,417.853577 578.320740,416.089966 
	C581.452637,407.176758 593.565063,403.477997 602.264648,408.665649 
	C607.945190,412.053040 610.983765,418.405701 609.995850,426.251526 
	C609.272461,431.996429 604.357788,437.393707 598.782166,439.017181 
	C590.156006,441.528900 580.852722,437.336182 578.202942,429.413696 
	C577.248779,426.560913 575.689880,425.853760 572.851685,425.932220 
	C565.527893,426.134613 558.194763,426.005280 550.865356,425.998688 
	C541.407837,425.990204 534.512634,419.525085 534.000122,410.196747 
	C533.591431,402.759216 529.603455,399.003113 522.095947,399.001099 
	C507.770325,398.997314 493.444702,398.987457 479.119110,399.005768 
	C472.786987,399.013855 468.314453,403.327332 467.983917,409.481567 
	C467.484070,418.787628 460.822968,426.468781 450.854950,426.057373 
	C443.704315,425.762299 436.524567,426.186829 429.372192,425.913391 
	C426.258148,425.794373 424.948547,426.934784 423.644409,429.638702 
	C418.676758,439.938568 408.219543,442.465424 398.470703,436.067871 
	C392.303619,432.020782 391.079895,425.774078 392.192810,419.399231 
	C393.229065,413.463684 397.126007,408.809387 403.225494,407.073212 
	C412.907440,404.317200 420.141663,408.118408 424.151031,417.375183 
	C424.548676,418.293243 424.602966,420.125366 426.536560,420.001587 
	C435.254639,419.443481 444.021667,420.994415 452.732849,419.145416 
	C456.655609,418.312805 458.984436,415.968201 460.890381,412.324646 
z"/>
<path fill="#FFFFFF" opacity="1.000000" stroke="none" 
	d="
M422.561005,467.046753 
	C420.492157,459.991058 419.358856,453.268127 424.980011,447.541748 
	C434.303558,438.043579 449.090820,441.608093 452.909058,453.681366 
	C454.221161,457.830261 456.830750,457.282257 459.713135,456.700073 
	C467.151703,455.197693 469.600677,449.036163 471.927277,443.021057 
	C474.522614,436.311066 476.657074,429.424347 479.120453,422.661255 
	C481.273224,416.750793 489.589478,411.032440 495.906952,411.011902 
	C500.399078,410.997314 505.076233,410.309143 509.343140,411.313507 
	C516.847839,413.080017 521.541199,418.306091 524.079041,425.730774 
	C526.818848,433.746155 530.009094,441.613220 533.180908,449.473114 
	C535.143799,454.337219 539.473816,456.165588 544.241028,456.945648 
	C546.822449,457.368073 548.731750,457.392944 549.453796,453.415649 
	C550.733215,446.368500 558.121216,441.664459 565.781616,442.036407 
	C572.566650,442.365814 579.503418,446.787994 581.039734,454.376923 
	C582.873657,463.436127 579.275146,472.013306 570.985901,474.241455 
	C562.740173,476.457855 555.409973,476.209747 550.216492,466.363892 
	C549.133789,464.311340 547.876770,464.137787 545.973145,463.953461 
	C535.157959,462.906281 528.623413,459.224304 524.927734,447.955627 
	C522.733765,441.265747 520.093872,434.720917 517.609680,428.127747 
	C514.229675,419.157196 508.093201,416.981293 499.835083,417.062469 
	C491.979889,417.139587 486.704865,421.548737 483.991425,429.370544 
	C481.630676,436.175751 479.256653,442.980438 476.682587,449.706573 
	C473.105408,459.053864 465.803284,463.318207 456.165466,463.940186 
	C453.983795,464.080994 452.637329,464.427948 451.643341,466.705322 
	C446.626495,478.199371 428.134247,477.780701 422.561005,467.046753 
z"/>
<path fill="#FFFFFF" opacity="1.000000" stroke="none" 
	d="
M574.728027,285.235474 
	C582.555420,290.200165 582.632324,302.182434 578.464294,308.007141 
	C573.208862,315.351501 563.273438,317.261963 555.929993,312.417542 
	C552.338135,310.048065 549.511963,307.056519 549.010925,302.519806 
	C548.723511,299.917725 546.893372,299.816406 545.009949,300.022125 
	C538.070740,300.780060 534.294983,303.657013 530.927246,312.537598 
	C527.533386,321.486938 525.482666,331.073151 519.905273,339.045349 
	C516.961670,343.252899 512.577820,346.005585 507.184143,345.939606 
	C502.084778,345.877228 496.950287,346.664124 491.875275,345.398468 
	C484.361847,343.524689 480.439453,338.278625 477.951721,331.351807 
	C475.141693,323.527679 471.926727,315.849854 469.034424,308.054016 
	C467.320862,303.435272 463.529785,301.329346 459.300842,300.251068 
	C456.479126,299.531647 453.873932,299.100159 452.635223,304.075043 
	C450.839996,311.285126 444.245331,316.267548 434.282623,314.865906 
	C428.386414,314.036377 422.433533,310.739441 420.935181,301.698334 
	C419.464935,292.826874 423.716278,285.282562 431.036652,282.953888 
	C439.437744,280.281464 448.393860,282.585480 451.768799,290.596252 
	C453.506653,294.721130 457.334930,293.389160 459.757843,293.720398 
	C469.026093,294.987366 473.970734,300.441071 477.009705,308.558044 
	C479.981995,316.496826 482.651154,324.579529 486.153839,332.280457 
	C489.394775,339.405823 496.252899,340.186157 503.149841,339.978546 
	C509.318817,339.792908 515.043152,335.764191 516.998535,330.441528 
	C520.032471,322.182831 522.850037,313.836395 526.161499,305.690643 
	C528.593384,299.708527 536.188660,292.801178 543.523499,293.999939 
	C546.931396,294.556915 549.216431,293.727142 550.568237,290.027039 
	C553.098877,283.100311 566.169861,278.296478 574.728027,285.235474 
z"/>
<path fill="#FFFFFF" opacity="1.000000" stroke="none" 
	d="
M427.999512,362.000000 
	C435.256714,362.393066 440.720032,364.902832 443.219543,371.764679 
	C444.063416,374.081360 445.067230,375.118347 447.944031,375.105255 
	C483.418610,374.943848 518.894165,374.996246 554.369507,375.009857 
	C556.379944,375.010620 557.485901,374.928345 558.440369,372.292908 
	C561.202148,364.667603 569.828674,360.486572 577.877563,362.015594 
	C584.916992,363.352875 590.534058,370.221466 590.998779,378.060272 
	C591.414185,385.068939 585.736511,392.795807 578.726135,394.762360 
	C571.227600,396.865814 561.989929,393.301178 559.324341,386.376068 
	C557.853088,382.553833 555.981934,381.906433 552.349243,381.920441 
	C517.707153,382.053772 483.064392,382.020386 448.421936,381.959076 
	C445.810272,381.954437 444.149597,382.198425 443.130188,385.225616 
	C440.034576,394.418365 431.033752,396.022675 424.030304,394.874786 
	C417.184875,393.752808 410.920380,385.901703 411.078125,378.733551 
	C411.263367,370.312561 417.389709,362.145233 427.999512,362.000000 
z"/>
</svg>